<?xml version="1.0" encoding="UTF-8"?>
<!-- Created with Inkscape (http://www.inkscape.org/) -->
<svg width="50" height="50" version="1.1" viewBox="0 0 50 50" xmlns="http://www.w3.org/2000/svg">
 <g stroke="#000" stroke-linecap="round" stroke-linejoin="round">
  <g fill="#fff" stroke-width="3">
   <path d="m20.5 33.5 9 3v-9l-2-2v-7l8 8h7l2 6 3 1-2 6-4 2v1h7v6h-43l5-12 3-3z"/>
   <path d="m31.5 22.5 9-3 5 5-4 2h-6z"/>
   <path d="m10.5 36.5-6 3-3 6 1 3h3z"/>
   <path d="m29.5 36.5-6 3v-10l4-4 2 2z"/>
  </g>
  <path d="m17 38 3 3-2 3h6v5" fill="none" stroke-width="2"/>
  <g fill="#fff" stroke-width="3">
   <path d="m1.5 9.5h12v3l-6 6 6 1e-6v4l-12-2e-6 1e-7-4 5-5h-5z"/>
   <path d="m11.5 5.5h12v3l-6 6 6 1e-6v4l-12-2e-6v-4l5-5h-5z"/>
   <path d="m21.5 1.5h12v3l-6 6 6 1e-6v4l-12-2e-6v-4l5-5h-5z"/>
  </g>
  <path d="m36 34h-2" fill="none" stroke-width="2"/>
  <path d="m41 34h-2" fill="none" stroke-width="2"/>
 </g>
</svg>
