<?xml version="1.0" encoding="UTF-8"?>
<!-- Created with Inkscape (http://www.inkscape.org/) -->
<svg width="144" height="144" version="1.1" viewBox="0 0 144 144" xml:space="preserve" xmlns="http://www.w3.org/2000/svg"><g fill="#fff" stroke="#000" stroke-linecap="round" stroke-linejoin="round" stroke-width="4"><path d="m53 125h52l5 10h-53z" stroke-dashoffset=".2" stroke-miterlimit="3.2"/><g stroke-dashoffset=".2" stroke-miterlimit="3.2"><rect x="15" y="110" width="110" height="15" ry="0"/><rect x="15" y="135" width="110" height="15"/><rect x="135" y="110" width="15" height="15"/><rect x="135" y="135" width="15" height="15"/></g><path d="m67 52-11 12-6 1-4 11 10 7-9 17-12-2-4 12v11l-2 6h16v-11l-2-6h19v13l-2 7h16v-13l-2-7h24l-11-22 15-35-19 8zm-24 58-2-2"/></g><g stroke="#000" stroke-linecap="round" stroke-linejoin="round"><g stroke-width="4"><path d="m68 63-3 7" fill="none"/><path d="m78 67-3 7" fill="none"/><path d="m66 52-4-9 17-1 9 16-5 3z" fill="#fff"/><path d="m96 67 5 16-8 22-8-12z" fill="#fff"/></g><g><path d="m62 110 3-9 10 1" fill="none" stroke-width="4"/><path d="m85 75-1 13 22.5-11-2.5 14z" fill="#fff" stroke-width="3"/><path d="m91.5 81.5v3l1.5 1.5h3l1.5-1.5v-3l-1.5-1.5h-3z" fill="#fff" stroke-width="3"/><path d="m48 98-2 4v8" fill="none" stroke-width="4"/></g></g><g fill="#fff" stroke="#000" stroke-dashoffset=".2" stroke-linecap="round" stroke-linejoin="round" stroke-miterlimit="3.2" stroke-width="4"><rect x="125" y="95" width="10" height="60" ry="0"/><rect x="5" y="100" width="10" height="55" ry="0"/><rect x="-5" y="110" width="10" height="15"/><rect x="-5" y="135" width="10" height="15"/></g><path d="m74 110-1-1" fill="none" stroke="#000" stroke-linecap="round" stroke-linejoin="round" stroke-width="4"/><path d="m105 125 5 10h10l-10-10z" fill="#fff" stroke="#000" stroke-linecap="round" stroke-linejoin="round" stroke-width="4"/></svg>
