<?xml version="1.0" encoding="UTF-8"?>
<!-- Generator: Adobe Illustrator 18.1.1, SVG Export Plug-In . SVG Version: 6.00 Build 0)  -->
<svg id="Comments" x="50" y="50" enable-background="new 0 0 50 50" version="1.1" viewBox="0 0 50 50" xml:space="preserve" xmlns="http://www.w3.org/2000/svg">



<polyline points="1.5 46.5 7.5 40.5 15.5 48.5 23.5 40.5 31.5 48.5 39.5 40.5 47.5 48.5" fill="none" stroke="#000" stroke-linecap="round" stroke-linejoin="round" stroke-miterlimit="10" stroke-width="3"/>
<polyline points="15.5 46.5 15.5 31.5 1.5 31.5" fill="none" stroke="#000" stroke-linecap="round" stroke-linejoin="round" stroke-miterlimit="10" stroke-width="3"/><g fill="#fff" stroke="#000" stroke-linecap="round" stroke-linejoin="round">
<path d="m30.5 2.5v6l1 1-3 3h-9l-2 2-1 4-2 1h-1l-5 5 4 3 1-2 4-3h15l1 1 2 4h6l-4-4 7 2-2-5-2-2h-5l1-3 6-1 1-3-2-1-1-4h-6z" stroke-width="3"/><path d="m33 3.9998 5-1.9999 5 2-2 2-6 1e-4z" stroke-width="2"/><path d="m28 12-5-1e-4 3-3.9999 4-5e-5 1 1z" stroke-width="2"/></g><g stroke="#000" stroke-linecap="round" stroke-linejoin="round" stroke-width="2"><path d="m35 10v2" fill="none"/><path d="m38 10v2" fill="none"/><path d="m19 12-5-3h-7l1 3 5 1z" fill="#fff"/></g><g fill="none" stroke="#000" stroke-linecap="round" stroke-linejoin="round" stroke-width="2"><path d="m31 20 2 2"/><path d="m33 22 4-1e-4v1"/><path d="m18 22 4-2"/><path d="m10 5h10"/><path d="m2 20h6"/><path d="m5 15h4"/><path d="m18 2h7"/><path d="m2 9h2"/></g></svg>
